# 3ds Max Wavefront OBJ Exporter v0.97b - (c)2007 guruware
# File Created: 14.09.2016 13:43:02

mtllib flipper.mtl

#
# object Cylinder004
#

v  -3.6585 0.0000 0.1382
v  -3.5805 0.0000 0.3332
v  -3.5809 0.2296 0.3325
v  -3.6585 0.2296 0.1382
v  -3.4415 -0.0014 0.4796
v  -3.4420 0.2283 0.4832
v  -3.2617 -0.0016 0.5766
v  -3.2605 0.2280 0.5810
v  -3.0735 0.0000 0.6147
v  -3.0724 0.2296 0.6149
v  -3.1107 0.0000 -0.5797
v  -3.2927 0.0000 -0.5411
v  -3.2927 0.2296 -0.5411
v  -3.1107 0.2296 -0.5797
v  -3.4701 0.0000 -0.4315
v  -3.4701 0.2296 -0.4315
v  -3.5993 0.0000 -0.2680
v  -3.5993 0.2296 -0.2680
v  -3.6647 0.0000 -0.0701
v  -3.6647 0.2296 -0.0701
v  -3.5606 0.6252 0.1179
v  -3.4963 0.6252 0.2792
v  -3.3929 0.7552 0.2657
v  -3.4539 0.7552 0.1124
v  -3.3808 0.6252 0.4088
v  -3.2831 0.7552 0.3889
v  -3.2279 0.6252 0.4912
v  -3.1378 0.7552 0.4672
v  -3.0561 0.6252 0.5162
v  -2.9745 0.7552 0.4910
v  -3.0924 0.6252 -0.4814
v  -3.2559 0.6252 -0.4481
v  -3.1643 0.7552 -0.4255
v  -3.0065 0.7552 -0.4579
v  -3.4036 0.6252 -0.3569
v  -3.3047 0.7552 -0.3388
v  -3.5112 0.6252 -0.2206
v  -3.4070 0.7552 -0.2093
v  -3.5657 0.6252 -0.0557
v  -3.4588 0.7552 -0.0526
v  1.0866 0.0000 0.1715
v  1.0797 0.0000 -0.2105
v  1.0797 0.2296 -0.2105
v  1.0866 0.2296 0.1715
v  0.9426 0.0000 -0.5671
v  0.9426 0.2296 -0.5671
v  0.6918 0.0000 -0.8552
v  0.6918 0.2296 -0.8552
v  0.3575 0.0000 -1.0403
v  0.3575 0.2296 -1.0403
v  -0.0185 0.0000 -1.0998
v  -0.0185 0.2296 -1.0998
v  0.0198 0.0000 1.0998
v  0.3948 0.0000 1.0267
v  0.3948 0.2296 1.0267
v  0.0198 0.2296 1.0998
v  0.7221 0.0000 0.8298
v  0.7221 0.2296 0.8298
v  0.9624 0.0000 0.5328
v  0.9624 0.2296 0.5328
v  0.9878 0.6252 0.1559
v  0.9815 0.6252 -0.1914
v  0.8628 0.7552 -0.1815
v  0.8687 0.7552 0.1485
v  0.8569 0.6252 -0.5155
v  0.7443 0.7552 -0.4896
v  0.6289 0.6252 -0.7775
v  0.5276 0.7552 -0.7385
v  0.3250 0.6252 -0.9457
v  0.2389 0.7552 -0.8984
v  -0.0180 0.6252 -0.9998
v  -0.0872 0.7552 -0.9499
v  0.0180 0.6252 0.9998
v  0.3589 0.6252 0.9334
v  0.2710 0.7552 0.8874
v  -0.0529 0.7552 0.9506
v  0.6565 0.6252 0.7543
v  0.5539 0.7552 0.7173
v  0.8749 0.6252 0.4843
v  0.7614 0.7552 0.4607
v  -0.0180 0.2296 -0.9998
v  -3.0924 0.2296 -0.4814
v  -0.2615 0.8083 -0.8231
v  -2.7909 0.8083 -0.3972
v  -0.0177 0.9502 0.3887
v  -0.0317 0.9496 -0.3939
v  -2.7803 0.8284 -0.3481
v  -2.7576 0.8294 0.3775
v  0.0987 0.9554 -0.3727
v  0.1116 0.9559 0.3626
v  0.3501 0.9665 0.0584
v  0.3478 0.9664 -0.0775
v  0.3005 0.9643 -0.2044
v  0.3073 0.9646 0.1869
v  0.2140 0.9605 -0.3069
v  0.2245 0.9609 0.2926
v  -2.8907 0.8236 0.3581
v  -2.9108 0.8227 -0.3210
v  -3.0011 0.8187 0.2986
v  -3.0176 0.8180 -0.2550
v  -3.0845 0.8150 0.2048
v  -3.0953 0.8146 -0.1565
v  -3.1309 0.8130 0.0882
v  -3.1347 0.8128 -0.0373
v  0.0180 0.0000 0.9998
v  -3.0561 0.0000 0.5162
v  -3.0924 0.0000 -0.4814
v  -0.0180 0.0000 -0.9998
v  0.3589 0.0000 0.9334
v  0.3250 0.0000 -0.9457
v  0.6565 0.0000 0.7543
v  0.6289 0.0000 -0.7775
v  0.8749 0.0000 0.4843
v  0.8569 0.0000 -0.5155
v  0.9815 0.0000 -0.1914
v  0.9878 0.0000 0.1559
v  -3.2559 0.0000 -0.4481
v  -3.2279 0.0000 0.4825
v  -3.4036 0.0000 -0.3569
v  -3.3808 0.0000 0.4001
v  -3.5112 0.0000 -0.2206
v  -3.4963 0.0000 0.2792
v  -3.5657 0.0000 -0.0557
v  -3.5606 0.0000 0.1179
v  -3.1294 0.8083 0.2315
v  -3.1823 0.8083 0.0985
v  -3.0341 0.8083 0.3384
v  -2.9081 0.8083 0.4063
v  -2.7664 0.8083 0.4269
v  -2.9311 0.8083 -0.3682
v  -3.0529 0.8083 -0.2929
v  -3.1416 0.8083 -0.1806
v  -3.1866 0.8083 -0.0446
v  0.5626 0.8083 -0.1565
v  0.5678 0.8083 0.1298
v  0.4599 0.8083 -0.4237
v  0.2719 0.8083 -0.6398
v  0.0214 0.8083 -0.7784
v  0.0493 0.8083 0.7709
v  -0.2318 0.8083 0.8257
v  0.2947 0.8083 0.6233
v  0.4747 0.8083 0.4006
v  -3.4963 0.2296 0.2792
v  -3.5606 0.2296 0.1179
v  -3.3808 0.2296 0.4041
v  -3.2279 0.2296 0.4865
v  -3.0561 0.2296 0.5162
v  -3.2559 0.2296 -0.4481
v  -3.4036 0.2296 -0.3569
v  -3.5112 0.2296 -0.2206
v  -3.5657 0.2296 -0.0557
v  0.9815 0.2296 -0.1914
v  0.9878 0.2296 0.1559
v  0.8569 0.2296 -0.5155
v  0.6289 0.2296 -0.7775
v  0.3250 0.2296 -0.9457
v  0.3589 0.2296 0.9334
v  0.0180 0.2296 0.9998
v  0.6565 0.2296 0.7543
v  0.8749 0.2296 0.4843
# 160 vertices

vn -0.9791 0.0000 0.2036
vn -0.8416 0.0002 0.5401
vn -0.8447 -0.0035 0.5352
vn -0.9791 -0.0002 0.2034
vn -0.6105 -0.0102 0.7919
vn -0.6128 -0.0137 0.7901
vn -0.3414 -0.0164 0.9398
vn -0.3330 -0.0113 0.9429
vn -0.1891 -0.0099 0.9819
vn -0.1774 0.0000 0.9841
vn -0.2077 0.0000 -0.9782
vn -0.3721 0.0000 -0.9282
vn -0.6652 0.0000 -0.7466
vn -0.8805 0.0000 -0.4740
vn -0.9895 0.0000 -0.1443
vn -0.9273 0.3237 0.1881
vn -0.8160 0.3020 0.4929
vn -0.4826 0.8189 0.3108
vn -0.5306 0.8399 0.1140
vn -0.6124 0.2573 0.7475
vn -0.3812 0.7716 0.5092
vn -0.3312 0.1898 0.9243
vn -0.2128 0.6840 0.6977
vn -0.1456 0.1532 0.9774
vn -0.0964 0.7441 0.6610
vn -0.1971 0.1716 -0.9653
vn -0.3825 0.2059 -0.9007
vn -0.2472 0.6988 -0.6712
vn -0.1288 0.7682 -0.6271
vn -0.6532 0.2690 -0.7078
vn -0.4042 0.7802 -0.4774
vn -0.8425 0.3075 -0.4424
vn -0.4952 0.8231 -0.2779
vn -0.9363 0.3250 -0.1336
vn -0.5346 0.8412 -0.0810
vn 0.9878 0.0000 0.1559
vn 0.9815 0.0000 -0.1914
vn 0.8569 0.0000 -0.5155
vn 0.6289 0.0000 -0.7775
vn 0.3253 0.0000 -0.9456
vn 0.1564 0.0000 -0.9877
vn 0.1914 0.0000 0.9815
vn 0.3589 0.0000 0.9334
vn 0.6565 0.0000 0.7543
vn 0.8749 0.0000 0.4843
vn 0.9260 0.3491 0.1437
vn 0.9205 0.3486 -0.1766
vn 0.4993 0.8606 -0.1005
vn 0.5019 0.8611 0.0819
vn 0.8120 0.3334 -0.4790
vn 0.4518 0.8464 -0.2819
vn 0.6099 0.3023 -0.7325
vn 0.3533 0.8153 -0.4587
vn 0.3320 0.2533 -0.9086
vn 0.1949 0.7611 -0.6186
vn 0.1514 0.2392 -0.9591
vn 0.0876 0.8269 -0.5554
vn 0.1855 0.2451 0.9516
vn 0.3638 0.2575 0.8952
vn 0.2150 0.7661 0.6057
vn 0.1064 0.8313 0.5456
vn 0.6350 0.3052 0.7097
vn 0.3671 0.8183 0.4423
vn 0.8280 0.3350 0.4495
vn 0.4597 0.8479 0.2639
vn -0.1652 0.1133 -0.9797
vn -0.1663 -0.0000 -0.9861
vn -0.1653 0.1110 -0.9800
vn -0.0803 0.8751 -0.4772
vn -0.1510 0.4175 -0.8961
vn -0.1517 0.4096 -0.8996
vn -0.0807 0.8742 -0.4788
vn -0.1544 0.1124 0.9816
vn -0.1415 0.4141 0.8992
vn -0.1414 0.4146 0.8990
vn -0.1544 0.1128 0.9815
vn -0.1549 0.0000 0.9879
vn -0.1549 -0.0000 0.9879
vn -0.1549 -0.0001 0.9879
vn -0.0440 0.9990 -0.0000
vn -0.0440 0.9990 0.0000
vn 0.0000 -1.0000 -0.0000
vn -0.1804 0.9756 0.1255
vn -0.1897 0.9809 0.0432
vn -0.1561 0.9585 0.2384
vn -0.0889 0.8921 0.4431
vn -0.0713 0.8692 0.4893
vn -0.1080 0.9084 -0.4039
vn -0.0929 0.8890 -0.4484
vn -0.1634 0.9623 -0.2176
vn -0.1836 0.9767 -0.1109
vn -0.1906 0.9812 -0.0307
vn 0.1713 0.9846 -0.0359
vn 0.1720 0.9847 0.0293
vn 0.1591 0.9817 -0.1048
vn 0.1306 0.9739 -0.1856
vn 0.0713 0.9534 -0.2931
vn 0.0513 0.9443 -0.3252
vn 0.0803 0.9558 0.2830
vn 0.0614 0.9471 0.3149
vn 0.1354 0.9747 0.1776
vn 0.1615 0.9820 0.0977
vn -0.0755 0.8741 0.4798
vn -0.1043 0.9940 0.0334
vn -0.1315 0.9863 0.0991
vn -0.1314 0.9695 0.2068
vn -0.0685 0.9408 0.3319
vn -0.0451 0.9533 0.2988
vn 0.0538 0.9392 0.3392
vn 0.2098 0.9066 0.3661
vn 0.3883 0.8640 0.3206
vn 0.5350 0.8241 0.1860
vn 0.5899 0.8074 -0.0107
vn 0.5277 0.8242 -0.2053
vn 0.3759 0.8643 -0.3342
vn 0.1957 0.9071 -0.3726
vn 0.0411 0.9397 -0.3396
vn -0.0485 0.9535 -0.2974
vn -0.0847 0.9465 -0.3115
vn -0.1351 0.9732 -0.1862
vn -0.1277 0.9882 -0.0847
vn -0.0999 0.9946 -0.0263
vn -0.0880 0.9961 0.0020
vn -0.8459 0.0000 0.5333
vn -0.9792 0.0000 0.2028
vn -0.6150 -0.0064 0.7885
vn -0.3236 -0.0069 0.9462
vn -0.1707 0.0000 0.9853
vn -0.3683 0.0000 -0.9297
vn -0.1997 -0.0000 -0.9799
vn -0.6653 0.0000 -0.7466
vn -0.8805 -0.0000 -0.4740
vn -0.9895 -0.0000 -0.1443
vn 0.8569 -0.0000 -0.5155
vn 0.6289 -0.0000 -0.7775
vn 0.3250 -0.0000 -0.9457
vn 0.1559 -0.0000 -0.9878
vn -0.1659 0.0000 -0.9861
vn -0.1554 0.0000 0.9879
vn 0.0025 -1.0000 -0.0076
vn 0.0067 -0.9999 -0.0138
vn 0.0059 -1.0000 -0.0069
vn 0.0000 -1.0000 0.0000
vn 0.0000 1.0000 -0.0000
vn -0.0000 1.0000 -0.0000
vn -0.0058 1.0000 0.0070
vn -0.0066 0.9999 0.0138
vn -0.0027 1.0000 0.0075
# 148 vertex normals

vt 0.7500 0.0000 1.0000
vt 0.8056 0.0000 1.0000
vt 0.8056 0.2296 1.0000
vt 0.7500 0.2296 1.0000
vt 0.8611 0.0000 1.0000
vt 0.8611 0.2296 1.0000
vt 0.9167 0.0000 1.0000
vt 0.9167 0.2296 1.0000
vt 0.9722 0.0000 1.0000
vt 0.9722 0.2296 1.0000
vt 0.4722 0.0000 1.0000
vt 0.5278 0.0000 1.0000
vt 0.5278 0.2296 1.0000
vt 0.4722 0.2296 1.0000
vt 0.5833 0.0000 1.0000
vt 0.5833 0.2296 1.0000
vt 0.6389 0.0000 1.0000
vt 0.6389 0.2296 1.0000
vt 0.6944 0.0000 1.0000
vt 0.6944 0.2296 1.0000
vt 0.7500 0.5000 1.0000
vt 0.8056 0.5000 1.0000
vt 0.8056 0.7178 1.0000
vt 0.7500 0.7178 1.0000
vt 0.8611 0.5000 1.0000
vt 0.8611 0.7178 1.0000
vt 0.9167 0.5000 1.0000
vt 0.9167 0.7178 1.0000
vt 0.9722 0.5000 1.0000
vt 0.9722 0.7178 1.0000
vt 0.4722 0.5000 1.0000
vt 0.5278 0.5000 1.0000
vt 0.5278 0.7178 1.0000
vt 0.4722 0.7178 1.0000
vt 0.5833 0.5000 1.0000
vt 0.5833 0.7178 1.0000
vt 0.6389 0.5000 1.0000
vt 0.6389 0.7178 1.0000
vt 0.6944 0.5000 1.0000
vt 0.6944 0.7178 1.0000
vt 1.0278 0.0000 1.0000
vt 1.0278 0.2296 1.0000
vt 1.0278 0.5000 1.0000
vt 1.0278 0.7178 1.0000
vt 0.5533 0.2296 1.0000
vt 0.6389 1.0000 1.0000
vt 0.6075 0.7178 1.0000
vt 0.4722 1.0000 1.0000
vt 0.6631 0.7178 1.0000
vt 0.6088 0.2296 1.0000
vt 0.5278 1.0000 1.0000
vt 1.0278 1.0000 1.0000
vt 0.9722 1.0000 1.0000
vt 0.5833 1.0000 1.0000
vt 0.7500 1.0000 1.0000
vt 0.8056 1.0000 1.0000
vt 0.8611 1.0000 1.0000
vt 0.6944 1.0000 1.0000
vt 0.9167 1.0000 1.0000
# 59 texture coords

g Cylinder004
usemtl flipper_rubber
s 8
f 1/1/1 2/2/2 3/3/3 4/4/4 
f 2/2/2 5/5/5 6/6/6 3/3/3 
f 5/5/5 7/7/7 8/8/8 6/6/6 
f 7/7/7 9/9/9 10/10/10 8/8/8 
f 11/11/11 12/12/12 13/13/12 14/14/11 
f 12/12/12 15/15/13 16/16/13 13/13/12 
f 15/15/13 17/17/14 18/18/14 16/16/13 
f 17/17/14 19/19/15 20/20/15 18/18/14 
f 19/19/15 1/1/1 4/4/4 20/20/15 
usemtl flipper_top
f 21/21/16 22/22/17 23/23/18 24/24/19 
f 22/22/17 25/25/20 26/26/21 23/23/18 
f 25/25/20 27/27/22 28/28/23 26/26/21 
f 27/27/22 29/29/24 30/30/25 28/28/23 
f 31/31/26 32/32/27 33/33/28 34/34/29 
f 32/32/27 35/35/30 36/36/31 33/33/28 
f 35/35/30 37/37/32 38/38/33 36/36/31 
f 37/37/32 39/39/34 40/40/35 38/38/33 
f 39/39/34 21/21/16 24/24/19 40/40/35 
usemtl flipper_rubber
f 41/1/36 42/2/37 43/3/37 44/4/36 
f 42/2/37 45/5/38 46/6/38 43/3/37 
f 45/5/38 47/7/39 48/8/39 46/6/38 
f 47/7/39 49/9/40 50/10/40 48/8/39 
f 49/9/40 51/41/41 52/42/41 50/10/40 
f 53/12/42 54/15/43 55/16/43 56/13/42 
f 54/15/43 57/17/44 58/18/44 55/16/43 
f 57/17/44 59/19/45 60/20/45 58/18/44 
f 59/19/45 41/1/36 44/4/36 60/20/45 
usemtl flipper_top
f 61/21/46 62/22/47 63/23/48 64/24/49 
f 62/22/47 65/25/50 66/26/51 63/23/48 
f 65/25/50 67/27/52 68/28/53 66/26/51 
f 67/27/52 69/29/54 70/30/55 68/28/53 
f 69/29/54 71/43/56 72/44/57 70/30/55 
f 73/32/58 74/35/59 75/36/60 76/33/61 
f 74/35/59 77/37/62 78/38/63 75/36/60 
f 77/37/62 79/39/64 80/40/65 78/38/63 
f 79/39/64 61/21/46 64/24/49 80/40/65 
s 1
f 71/35/66 81/45/67 82/14/67 31/31/68 
f 83/46/69 72/47/70 34/34/71 84/48/72 
f 73/37/73 76/49/74 30/30/75 29/29/76 
usemtl flipper_rubber
f 53/15/77 56/50/78 10/10/79 9/9/79 
usemtl flipper_top
s off
f 85/51/80 86/52/80 87/48/80 88/53/80 
f 89/53/80 86/52/80 85/51/80 90/54/80 
f 91/55/81 92/56/81 93/57/81 94/58/81 
f 93/57/80 95/59/80 96/46/80 94/58/80 
f 95/59/80 89/53/80 90/54/80 96/46/80 
f 97/59/80 88/53/80 87/48/80 98/51/80 
f 99/57/81 97/59/81 98/51/81 100/54/81 
f 101/56/81 99/57/81 100/54/81 102/46/81 
f 103/55/81 101/56/81 102/46/81 104/58/81 
usemtl flipper_rubber
s 2
f 105/15/82 106/9/82 107/11/82 108/12/82 
s 4
f 109/17/82 105/15/82 108/12/82 110/9/82 
s 1
f 111/19/82 109/17/82 110/9/82 112/7/82 
s 2
f 113/21/82 111/19/82 112/7/82 114/5/82 
s off
f 113/19/82 114/5/82 115/2/82 116/1/82 
s 4
f 117/12/82 107/11/82 106/9/82 118/7/82 
s 1
f 119/15/82 117/12/82 118/7/82 120/5/82 
s 2
f 121/17/82 119/15/82 120/5/82 122/2/82 
s off
f 123/19/82 121/17/82 122/2/82 124/1/82 
usemtl flipper_top
s 8
f 23/23/18 125/56/83 126/55/84 24/24/19 
f 26/26/21 127/57/85 125/56/83 23/23/18 
f 28/28/23 128/59/86 127/57/85 26/26/21 
f 30/30/25 129/53/87 128/59/86 28/28/23 
f 33/33/28 130/51/88 84/48/89 34/34/29 
f 36/36/31 131/54/90 130/51/88 33/33/28 
f 38/38/33 132/46/91 131/54/90 36/36/31 
f 40/40/35 133/58/92 132/46/91 38/38/33 
f 24/24/19 126/55/84 133/58/92 40/40/35 
f 63/23/48 134/56/93 135/55/94 64/24/49 
f 66/26/51 136/57/95 134/56/93 63/23/48 
f 68/28/53 137/59/96 136/57/95 66/26/51 
f 70/30/55 138/53/97 137/59/96 68/28/53 
f 72/44/57 83/52/98 138/53/97 70/30/55 
f 75/36/60 139/54/99 140/51/100 76/33/61 
f 78/38/63 141/46/101 139/54/99 75/36/60 
f 80/40/65 142/58/102 141/46/101 78/38/63 
f 64/24/49 135/55/94 142/58/102 80/40/65 
s 1
f 72/47/70 71/35/66 31/31/68 34/34/71 
f 76/49/74 140/58/103 129/53/103 30/30/75 
s off
f 126/55/104 125/56/104 101/56/104 103/55/104 
f 125/56/105 127/57/105 99/57/105 101/56/105 
f 127/57/106 128/59/106 97/59/106 99/57/106 
f 128/59/107 129/53/107 88/53/107 97/59/107 
f 129/53/108 140/51/108 85/51/108 88/53/108 
f 140/51/109 139/54/109 90/54/109 85/51/109 
f 139/54/110 141/46/110 96/46/110 90/54/110 
f 141/46/111 142/58/111 94/58/111 96/46/111 
f 142/58/112 135/55/112 91/55/112 94/58/112 
f 135/55/113 134/56/113 92/56/113 91/55/113 
f 134/56/114 136/57/114 93/57/114 92/56/114 
f 136/57/115 137/59/115 95/59/115 93/57/115 
f 137/59/116 138/53/116 89/53/116 95/59/116 
f 138/53/117 83/52/117 86/52/117 89/53/117 
f 83/52/118 84/48/118 87/48/118 86/52/118 
f 84/48/119 130/51/119 98/51/119 87/48/119 
f 130/51/120 131/54/120 100/54/120 98/51/120 
f 131/54/121 132/46/121 102/46/121 100/54/121 
f 132/46/122 133/58/122 104/58/122 102/46/122 
f 133/58/123 126/55/123 103/55/123 104/58/123 
s 8
f 143/3/124 22/22/17 21/21/16 144/4/125 
f 145/6/126 25/25/20 22/22/17 143/3/124 
f 146/8/127 27/27/22 25/25/20 145/6/126 
f 147/10/128 29/29/24 27/27/22 146/8/127 
f 148/13/129 32/32/27 31/31/26 82/14/130 
f 149/16/131 35/35/30 32/32/27 148/13/129 
f 150/18/132 37/37/32 35/35/30 149/16/131 
f 151/20/133 39/39/34 37/37/32 150/18/132 
f 144/4/125 21/21/16 39/39/34 151/20/133 
f 152/3/37 62/22/47 61/21/46 153/4/36 
f 154/6/134 65/25/50 62/22/47 152/3/37 
f 155/8/135 67/27/52 65/25/50 154/6/134 
f 156/10/136 69/29/54 67/27/52 155/8/135 
f 81/42/137 71/43/56 69/29/54 156/10/136 
f 157/16/43 74/35/59 73/32/58 158/13/42 
f 159/18/44 77/37/62 74/35/59 157/16/43 
f 160/20/45 79/39/64 77/37/62 159/18/44 
f 153/4/36 61/21/46 79/39/64 160/20/45 
usemtl flipper_rubber
s 1
f 52/45/138 51/12/138 11/11/138 14/14/138 
usemtl flipper_top
f 158/50/139 73/37/73 29/29/76 147/10/139 
usemtl flipper_rubber
s off
f 124/1/82 122/2/82 2/2/82 1/1/82 
f 122/2/140 120/5/140 5/5/140 2/2/140 
f 120/5/141 118/7/141 7/7/141 5/5/141 
f 118/7/142 106/9/142 9/9/142 7/7/142 
f 106/9/82 105/15/82 53/15/82 9/9/82 
f 105/12/143 109/15/143 54/15/143 53/12/143 
f 109/15/143 111/17/143 57/17/143 54/15/143 
f 111/17/82 113/19/82 59/19/82 57/17/82 
f 113/19/82 116/1/82 41/1/82 59/19/82 
f 116/1/82 115/2/82 42/2/82 41/1/82 
f 115/2/82 114/5/82 45/5/82 42/2/82 
f 114/5/82 112/7/82 47/7/82 45/5/82 
f 112/7/82 110/9/82 49/9/82 47/7/82 
f 110/9/82 108/41/82 51/41/82 49/9/82 
f 108/12/82 107/11/82 11/11/82 51/12/82 
f 107/11/82 117/12/82 12/12/82 11/11/82 
f 117/12/82 119/15/82 15/15/82 12/12/82 
f 119/15/82 121/17/82 17/17/82 15/15/82 
f 121/17/82 123/19/82 19/19/82 17/17/82 
f 123/19/82 124/1/82 1/1/82 19/19/82 
f 143/3/144 144/4/144 4/4/144 3/3/144 
f 144/4/144 151/20/144 20/20/144 4/4/144 
f 151/20/144 150/18/144 18/18/144 20/20/144 
f 150/18/144 149/16/144 16/16/144 18/18/144 
f 149/16/144 148/13/144 13/13/144 16/16/144 
f 148/13/144 82/14/144 14/14/144 13/13/144 
f 82/14/144 81/45/144 52/45/144 14/14/144 
f 81/42/144 156/10/144 50/10/144 52/42/144 
f 156/10/144 155/8/144 48/8/144 50/10/144 
f 155/8/144 154/6/144 46/6/144 48/8/144 
f 154/6/144 152/3/144 43/3/144 46/6/144 
f 152/3/144 153/4/144 44/4/144 43/3/144 
f 153/4/144 160/20/144 60/20/144 44/4/144 
f 160/20/144 159/18/144 58/18/144 60/20/144 
f 159/18/145 157/16/145 55/16/145 58/18/145 
f 157/16/145 158/13/145 56/13/145 55/16/145 
f 158/50/144 147/10/144 10/10/144 56/50/144 
f 147/10/146 146/8/146 8/8/146 10/10/146 
f 146/8/147 145/6/147 6/6/147 8/8/147 
f 145/6/148 143/3/148 3/3/148 6/6/148 
# 158 polygons

